<?xml version="1.0" encoding="UTF-8"?>
<svg id="Layer_1" data-name="Layer 1" xmlns="http://www.w3.org/2000/svg" viewBox="0 0 186.54 225.74">
  <defs>
    <style>
      .cls-1 {
        fill: none;
        stroke: #fff;
        stroke-linecap: round;
        stroke-linejoin: round;
        stroke-width: 10px;
      }
    </style>
  </defs>
  <g id="bell">
    <path class="cls-1" d="M93.27,30.4V1M93.27,30.4c37.95,1.37,67.9,30.91,67.66,66.72v22.37c0,29.66,24.61,37.06,24.61,51.89,0,7.37,0,16.06-7.09,16.06H8.09c-7.09,0-7.09-8.69-7.09-16.06,0-14.83,24.61-22.24,24.61-51.89v-22.37c-.24-35.82,29.7-65.35,67.66-66.72ZM50.21,187.44c1.24,10.59,4.03,19.14,12.44,26.25,17.42,14.73,43.82,14.73,61.24,0,8.41-7.11,16.29-15.66,17.53-26.25H50.21Z"/>
  </g>
</svg>