<?xml version="1.0" encoding="UTF-8"?>
<svg id="bookworm_logo" data-name="Layer 1" xmlns="http://www.w3.org/2000/svg" width="832.7" height="726.44" xmlns:xlink="http://www.w3.org/1999/xlink" viewBox="0 0 832.7 726.44">
  <defs>
    <clipPath id="clippath">
      <rect x="91.25" width="647.83" height="661.43" style="fill: none; stroke-width: 0px;"/>
    </clipPath>
    <clipPath id="clippath-1">
      <rect x="133.22" y="326.17" width="647.83" height="251.27" style="fill: none; stroke-width: 0px;"/>
    </clipPath>
  </defs>
  <g style="clip-path: url(#clippath);">
    <path d="M643.18,97.91c125.93,128.58,125.93,337.04,0,465.61-125.93,128.57-330.11,128.57-456.04,0-125.93-128.58-125.93-337.04,0-465.61,125.93-128.58,330.11-128.58,456.04,0h0Z" style="fill: #cee4a9; stroke-width: 0px;"/>
  </g>
  <g style="clip-path: url(#clippath-1);">
    <path d="M298.49,363.9c47.45-.16,86.2,39.34,86.2,87.95.16,23.23-8.72,45.36-25.02,62-16.3,16.81-37.95,25.85-61.03,25.85h-1.61c-22.43-.33-43.39-9.55-59.36-25.7-16.3-16.64-25.37-38.75-25.37-62.16,0-48.45,38.58-87.95,86.2-87.95h-.01ZM615.98,363.54c47.45,0,86.15,39.56,86.15,88.01,0,23.73-9.02,45.82-25.32,62.46-15.98,16.31-36.98,25.37-59.41,25.7h-1.61c-22.92,0-44.53-9.21-60.83-25.85-16.3-16.64-25.17-38.75-25.17-62.31,0-48.45,38.75-88.17,86.2-88.01h-.01ZM298.64,327.65c-32.44,0-62.92,13.01-85.84,36.41-15.98,16.31-26.96,36.43-32.13,58.34h-46v37.08h42.77c.81,9.56,1,10.37,1.16,10.87,3.87,26.04,15.47,50.1,34.2,69.21,22.92,23.4,53.56,36.41,85.84,36.41,64.07,0,117.34-51.27,121.05-116.69l.2-3.09,2.57-1.65c7.75-4.94,19.85-11.23,34.7-11.23s26.95,6.28,34.7,11.23l2.57,1.65.15,3.09c3.87,65.42,56.97,116.52,121.05,116.69,32.44.16,62.98-12.84,85.89-36.41,18.56-18.95,30.32-43.17,34.2-69.21.16-.49.3-1.31,1.11-10.87h42.77v-37.08h-45.65c-5.16-21.92-15.99-42.03-32.13-58.34-22.92-23.4-53.4-36.41-85.84-36.41h-2.12c-52.94.99-99.74,37.53-114.59,89.6l-1.92,6.59-6.15-2.63c-8.88-3.63-20.5-7.42-33.89-7.42s-25.02,3.63-33.89,7.42l-6.15,2.63-1.92-6.59c-14.69-52.07-61.65-88.78-114.59-89.6h-2.12Z" style="fill: #da594e; stroke-width: 0px;"/>
  </g>
  <g>
    <path d="M92.54,643.94c0,10.59-5.05,18.12-15.14,22.57,6.49,2.47,11.32,5.87,14.5,10.19,3.17,4.33,4.76,9.66,4.76,16,0,21.29-15.64,31.93-46.91,31.93H0v-18.58h13.22v-72.2H0v-18.58h49.75c14.45,0,25.19,2.37,32.23,7.11s10.55,11.93,10.55,21.55h.01ZM64.75,645.39c0-4.26-1.5-7.24-4.51-8.96-3.01-1.72-7.24-2.58-12.69-2.58h-6.54v24.67h8.6c5.07,0,8.86-.99,11.37-2.98,2.51-1.98,3.77-5.37,3.77-10.16h0ZM68.09,691.91c0-5.32-1.5-9.14-4.51-11.46s-8.19-3.48-15.53-3.48h-7.04v29.1h10.94c4.93,0,8.85-1.14,11.76-3.41,2.91-2.27,4.37-5.85,4.37-10.74h.01Z" style="fill: #e58b2d; stroke-width: 0px;"/>
    <path d="M188.91,686.46c0,7.6-1.75,14.44-5.26,20.54s-8.24,10.86-14.21,14.29-12.53,5.15-19.69,5.15c-7.58,0-14.36-1.72-20.33-5.15s-10.62-8.2-13.97-14.29-5.01-12.94-5.01-20.54,1.72-14.34,5.15-20.39c3.44-6.05,8.16-10.8,14.18-14.26s12.67-5.19,19.97-5.19,14.14,1.73,20.11,5.19,10.64,8.21,14,14.26c3.36,6.05,5.05,12.84,5.05,20.39h.01ZM149.61,707.51c4.64,0,8.28-1.85,10.91-5.55s3.94-9.01,3.94-15.93c0-6.48-1.31-11.55-3.94-15.2s-6.31-5.48-11.05-5.48-8.41,1.8-10.87,5.41c-2.46,3.6-3.7,9.03-3.7,16.29,0,6.14,1.34,11.09,4.02,14.84,2.68,3.75,6.24,5.62,10.7,5.62h-.01Z" style="fill: #e58b2d; stroke-width: 0px;"/>
    <path d="M278.46,686.46c0,7.6-1.75,14.44-5.26,20.54s-8.24,10.86-14.21,14.29-12.53,5.15-19.69,5.15c-7.58,0-14.36-1.72-20.33-5.15s-10.62-8.2-13.97-14.29-5.01-12.94-5.01-20.54,1.72-14.34,5.15-20.39c3.44-6.05,8.16-10.8,14.18-14.26s12.67-5.19,19.97-5.19,14.14,1.73,20.11,5.19,10.64,8.21,14,14.26,5.05,12.84,5.05,20.39h.01ZM239.16,707.51c4.64,0,8.28-1.85,10.91-5.55s3.94-9.01,3.94-15.93c0-6.48-1.31-11.55-3.94-15.2s-6.31-5.48-11.05-5.48-8.41,1.8-10.87,5.41c-2.46,3.6-3.7,9.03-3.7,16.29,0,6.14,1.34,11.09,4.02,14.84s6.24,5.62,10.7,5.62h-.01Z" style="fill: #e58b2d; stroke-width: 0px;"/>
    <path d="M328.99,707.87v16.76h-44.84v-17.56h11.94v-74.3h-11.94v-17.49h35.82v92.59h9.03-.01ZM329.7,648.37h45.13v15.46h-7.39l-22.03,19.08,19.97,24.16h10.3v17.56h-23.74l-31.84-40.27,25.3-21.26h-15.71v-14.73h.01Z" style="fill: #e58b2d; stroke-width: 0px;"/>
    <path d="M415.27,633.86l17.34,52.46,16.42-52.46h-9.88v-18.58h38.59v18.58h-9.88l17.55,52.46,16.91-52.46h-10.8v-18.58h43v18.58h-11.66l-29.71,91.35h-19.83l-16.84-49.92-15.99,49.92h-20.54l-30.56-91.35h-11.37v-18.58h48.33v18.58h-11.09.01Z" style="fill: #e58b2d; stroke-width: 0px;"/>
    <path d="M604.12,686.46c0,7.6-1.75,14.44-5.26,20.54s-8.24,10.86-14.21,14.29-12.53,5.15-19.69,5.15c-7.58,0-14.36-1.72-20.33-5.15-5.97-3.43-10.62-8.2-13.96-14.29-3.34-6.1-5.01-12.94-5.01-20.54s1.72-14.34,5.15-20.39c3.43-6.05,8.16-10.8,14.18-14.26s12.67-5.19,19.97-5.19,14.14,1.73,20.11,5.19,10.64,8.21,14,14.26,5.05,12.84,5.05,20.39h0ZM564.82,707.51c4.64,0,8.28-1.85,10.91-5.55,2.63-3.7,3.94-9.01,3.94-15.93,0-6.48-1.32-11.55-3.94-15.2-2.63-3.65-6.31-5.48-11.05-5.48s-8.41,1.8-10.87,5.41c-2.46,3.6-3.7,9.03-3.7,16.29,0,6.14,1.34,11.09,4.02,14.84s6.24,5.62,10.7,5.62h-.01Z" style="fill: #e58b2d; stroke-width: 0px;"/>
    <path d="M675.92,647.5v22.86c-6.54.44-11.74,1.49-15.6,3.16s-6.85,4.54-8.95,8.6c-2.11,4.06-3.16,9.87-3.16,17.41v7.55h14.85v17.56h-52.38v-17.56h13.72v-40.85h-13.01v-17.85h34.82v19.37c1.75-5.85,5-10.71,9.74-14.58s10.61-5.8,17.62-5.8c1.04,0,1.82.05,2.35.15v-.02Z" style="fill: #e58b2d; stroke-width: 0px;"/>
    <path d="M764.97,657.73c9.71-6.92,19.76-10.38,30.13-10.38,6.11,0,10.99.97,14.64,2.9,3.65,1.94,6.33,5.08,8.03,9.43,1.71,4.35,2.56,10.21,2.56,17.56v29.82h12.37v17.56h-36.25v-45.06c0-7.59-3.36-11.39-10.09-11.39-4.83,0-10.54,1.67-17.13,5.01v33.89h12.22v17.56h-36.1v-44.26c0-8.13-3.25-12.19-9.74-12.19-4.6,0-10.33,1.67-17.2,5.01v33.89h12.22v17.56h-48.33v-17.56h12.22v-40.85h-12.22v-17.85h36.1v6.39c7.86-4.93,15.92-7.4,24.16-7.4,9.62,0,17.08,3.46,22.39,10.38l.02-.02Z" style="fill: #e58b2d; stroke-width: 0px;"/>
  </g>
</svg>