<?xml version="1.0" encoding="UTF-8"?>
<svg id="Layer_1" xmlns="http://www.w3.org/2000/svg" version="1.1" viewBox="0 0 127.2 73.1">
  <!-- Generator: Adobe Illustrator 29.1.0, SVG Export Plug-In . SVG Version: 2.1.0 Build 142)  -->
  <defs>
    <style>
      .st0 {
        fill: currentColor;
      }
    </style>
  </defs>
  <g id="group_icon_illustration">
    <path class="st0" d="M74.4,38.4c5.9-3.6,9.9-10.2,9.9-17.7,0-11.4-9.3-20.7-20.7-20.7s-20.7,9.3-20.7,20.7,4,14,9.9,17.7c-25.6,4.3-26.1,23.8-26.1,23.8,0,0,16.5,11,36.9,11s36.9-11,36.9-11c0,0-.5-19.4-26.1-23.8h0Z"/>
    <path class="st0" d="M43.9,36.4c-2.6-2.3-6.4-4.4-12-5.3,4-2.4,6.6-6.8,6.6-11.8,0-7.6-6.2-13.8-13.8-13.8s-13.8,6.2-13.8,13.8,2.7,9.4,6.6,11.8C.3,34,0,46.9,0,46.9c0,0,10.9,7.2,24.4,7.4.6-1.4,1.3-3,2.3-4.6,2.8-4.5,7.9-10,17.3-13.3h0Z"/>
    <path class="st0" d="M109.8,31.1c4-2.4,6.6-6.8,6.6-11.8,0-7.6-6.2-13.8-13.8-13.8s-13.8,6.2-13.8,13.8,2.6,9.4,6.6,11.8c-5.6.9-9.5,3-12,5.3,9.4,3.3,14.5,8.8,17.3,13.3,1,1.6,1.7,3.1,2.3,4.6,13.5-.1,24.4-7.4,24.4-7.4,0,0-.3-13-17.4-15.9h0Z"/>
  </g>
</svg>