<?xml version="1.0" encoding="UTF-8"?>
<svg id="Layer_1" xmlns="http://www.w3.org/2000/svg" version="1.1" viewBox="0 0 256 256.6">
  <!-- Generator: Adobe Illustrator 29.1.0, SVG Export Plug-In . SVG Version: 2.1.0 Build 142)  -->
  <g id="Handshake_symbol_forming_a_love_heart_black_icon._Charity_help_concept._Trendy_flat_isolated_outline_symbol_sign_used_for:_illustration_logo_mobile_app_design_web_dev_ux_gui._Vector_EPS_10">
    <path d="M155.5,62.4c.8,0,1.5.3,2.1.9l71.7,71.9.2.2.9-.9c12.6-12.6,19.6-29.4,19.6-47.3s-7-34.9-19.8-47.5c-26-25.8-68.4-25.6-94.4.5l-30.4,30.5c-3.7,3.7-5.2,9-3.9,14,.7,2.6,2,4.9,3.9,6.8s.2.2.3.3c5.5,5.3,14.5,5.1,19.9-.4l27.9-27.9c.6-.6,1.4-.9,2.1-.9h0ZM214,169.3c-3.6,0-7.2-.9-10.4-2.7-1.6-.9-3.1-2.1-4.4-3.4l-53.2-53.3,4.2-4.2,53.2,53.3c.9,1,2,1.8,3.1,2.4,5.8,3.3,13.1,2.3,17.9-2.4,2.9-3,4.5-6.9,4.3-11.1h0v-.4c-.1-2.1-.8-4.2-2-6.1-.5-.7-1-1.4-1.7-2.1l-69.6-69.7-25.8,25.8c-3.8,3.8-8.7,5.9-14.1,6h-.4c-5.2,0-10.1-2-13.8-5.5h0l-.4-.4c-2.6-2.6-4.5-5.9-5.4-9.5-1.8-7,.3-14.5,5.5-19.7l30.4-30.5c6.9-6.9,15-12.3,24-16,8.7-3.6,17.9-5.4,27.4-5.5s18.7,1.7,27.4,5.2c9,3.6,17.2,8.9,24.1,15.9,7,7,12.5,15.1,16.2,24.2,3.6,8.8,5.4,18.1,5.4,27.6s-1.8,18.7-5.3,27.4c-3.7,9-9,17.2-16,24.1l-1.6,1.6c1,2.2,1.7,4.5,1.8,6.9,0,.2,0,.3,0,.5h0c.1,2.9-.4,5.6-1.4,8.3-1.1,2.7-2.6,5.2-4.7,7.3-3.3,3.3-7.5,5.4-12.1,6-.9.1-1.7.2-2.6.2h-.1Z"/>
    <path d="M63.3,113.5c-4,0-7.7,1.6-10.6,4.4l-17.9,17.9c-2.8,2.8-4.4,6.6-4.4,10.6s1.6,7.7,4.4,10.6h0c2.8,2.8,6.6,4.4,10.6,4.4s7.7-1.6,10.6-4.4l17.9-17.9c5.8-5.8,5.8-15.3,0-21.1-2.8-2.8-6.6-4.4-10.6-4.4h0ZM45.4,167.3c-5.6,0-10.8-2.2-14.8-6.1h0c-3.9-4-6.1-9.2-6.1-14.8s2.2-10.9,6.1-14.8l17.9-17.9c3.9-4,9.2-6.1,14.8-6.1h0c5.6,0,10.8,2.2,14.8,6.1,3.9,4,6.1,9.2,6.1,14.8s-2.2,10.9-6.1,14.8l-17.9,17.9c-3.9,4-9.2,6.1-14.8,6.1h0Z"/>
    <path d="M89.6,139.8c-4,0-7.7,1.6-10.6,4.4l-17.9,17.9c-2.8,2.8-4.4,6.6-4.4,10.6s1.6,7.7,4.4,10.6h0c5.8,5.8,15.3,5.8,21.1,0l17.9-17.9c2.8-2.8,4.4-6.6,4.4-10.6s-1.6-7.7-4.4-10.6c-2.8-2.8-6.6-4.4-10.6-4.4h0ZM71.7,193.7c-5.6,0-10.8-2.2-14.8-6.1h0c-3.9-4-6.1-9.2-6.1-14.8s2.2-10.9,6.1-14.8l17.9-17.9c3.9-4,9.2-6.1,14.8-6.1s10.8,2.2,14.8,6.1,6.1,9.2,6.1,14.8-2.2,10.9-6.1,14.8l-17.9,17.9c-3.9,4-9.2,6.1-14.8,6.1h0Z"/>
    <path d="M115.9,166.2c-3.8,0-7.6,1.5-10.6,4.4l-17.9,17.9c-2.8,2.8-4.4,6.6-4.4,10.6s1.6,7.7,4.4,10.6h0c2.8,2.8,6.6,4.4,10.6,4.4s7.7-1.6,10.6-4.4l17.9-17.9c2.8-2.8,4.4-6.6,4.4-10.6s-1.6-7.7-4.4-10.6c-2.9-2.9-6.7-4.4-10.6-4.4h0ZM98,220h0c-5.6,0-10.8-2.2-14.8-6.1s-6.1-9.2-6.1-14.8,2.2-10.9,6.1-14.8l17.9-17.9c3.9-4,9.2-6.1,14.8-6.1s10.8,2.2,14.8,6.1c3.9,4,6.1,9.2,6.1,14.8s-2.2,10.9-6.1,14.8l-17.9,17.9c-3.9,4-9.2,6.1-14.8,6.1h0Z"/>
    <path d="M113.8,236c2.8,2.8,6.6,4.4,10.6,4.4s7.7-1.6,10.6-4.4l17.9-17.9c2.8-2.8,4.4-6.6,4.4-10.6s-1.6-7.7-4.4-10.6c-5.8-5.8-15.3-5.8-21.1,0l-17.9,17.9c-5.8,5.8-5.8,15.3,0,21.1l-2.1,2.1,2.1-2.1h0ZM124.4,246.4c-5.6,0-10.8-2.2-14.8-6.1h0c-3.9-4-6.1-9.2-6.1-14.8s2.2-10.9,6.1-14.8l17.9-17.9c3.9-4,9.2-6.1,14.8-6.1h0c5.6,0,10.8,2.2,14.8,6.1s6.1,9.2,6.1,14.8-2.2,10.9-6.1,14.8l-17.9,17.9c-3.9,4-9.2,6.1-14.8,6.1h0Z"/>
    <path d="M26.1,143.5l-4.8-4.8c-6.9-7-12.3-15.1-16-24.1-3.5-8.7-5.3-18-5.3-27.4s1.8-18.7,5.3-27.4c3.7-9,9-17.2,16-24.1,6.9-7,15-12.3,24.1-16,8.7-3.5,17.9-5.3,27.4-5.3s18.6,1.8,27.4,5.3c9,3.7,17.1,9,24.1,16l5.9,6-4.2,4.2-5.9-6c-12.6-12.6-29.4-19.6-47.2-19.6s-34.6,7-47.2,19.6C-.5,65.9-.5,108.3,25.5,134.4l4.8,4.8-4.2,4.2h0Z"/>
    <polygon points="206.3 167.1 202 162.9 203 161.9 207.3 166.1 206.3 167.1 206.3 167.1"/>
    <polygon points="180.9 192.5 176.7 188.3 177.7 187.3 181.9 191.5 180.9 192.5 180.9 192.5"/>
    <path d="M163.3,220.2c-2.1,0-4.3-.3-6.3-1l1.8-5.7c5.3,1.7,11.1.3,15-3.7,4.7-4.7,5.7-12.1,2.4-17.9-.7-1.2-1.5-2.2-2.4-3.2l-53.2-53.3,4.2-4.2,53.2,53.3c1.3,1.3,2.5,2.8,3.4,4.4,2.2,3.9,3.1,8.5,2.6,13-.6,4.6-2.6,8.8-5.9,12.1s-6.2,4.7-10,5.6c-1.6.4-3.2.6-4.8.6h0Z"/>
    <path d="M188.7,194.8c-3.6,0-7.2-.9-10.4-2.7-1.6-.9-3.1-2.1-4.4-3.4l-53.2-53.3c-1.2-1.2-1.2-3.1,0-4.2s3.1-1.2,4.2,0l53.2,53.3c.9,1,2,1.8,3.1,2.4,2.3,1.3,4.8,2,7.3,2,3.8,0,7.7-1.5,10.5-4.4,4.7-4.7,5.7-12.1,2.4-17.9-.7-1.2-1.5-2.2-2.4-3.2l-53.2-53.3c-1.2-1.2-1.2-3.1,0-4.2s3.1-1.2,4.2,0l53.2,53.3c1.3,1.3,2.5,2.8,3.4,4.4,2.2,3.9,3.1,8.5,2.6,13-.6,4.6-2.6,8.8-5.9,12.1s-7.5,5.4-12.1,6c-.9.1-1.7.2-2.6.2h0Z"/>
  </g>
</svg>