<?xml version="1.0" encoding="UTF-8"?>
<svg id="Layer_1" data-name="Layer 1" xmlns="http://www.w3.org/2000/svg" width="262.25" height="275.99" viewBox="0 0 262.25 275.99">
  <g id="Layer_12" data-name="Layer 12">
    <g>
      <path d="M198.25,143.9c13.38,16.63,31.78,18.38,49.29,19.64" style="fill: none; stroke: #fff; stroke-miterlimit: 10; stroke-width: 10px;"/>
      <path d="M190.06,179.03c11.59,8.08,23.75,16.36,36.83,16.49,5.38.06,11.18-1.6,14.77-6.97" style="fill: none; stroke: #fff; stroke-miterlimit: 10; stroke-width: 10px;"/>
      <path d="M177.37,220.52c14.58,14.27,34.48,18.33,51.6,10.51" style="fill: none; stroke: #fff; stroke-miterlimit: 10; stroke-width: 10px;"/>
      <g>
        <path d="M52.3,121.37c14.02-1.43,22.32-9.03,33.99-17.57,24.57-24.84,45.59-53.31,62.4-84.52,2.1-4.29,5.27-7.9,9.18-10.44,6.98-4.55,15.67-5.09,23.11-1.45,3.23,1.58,6.12,3.87,8.47,6.75,4.79,5.86,6.99,13.59,6.05,21.26l-21.88,68.39" style="fill: none; stroke: #fff; stroke-miterlimit: 10; stroke-width: 10px;"/>
        <path d="M52.3,121.37H5v108.06c0,13.77,10.59,24.94,23.65,24.94h0c13.06,0,23.65-11.17,23.65-24.94v-108.06h0Z" style="fill: none; stroke: #fff; stroke-miterlimit: 10; stroke-width: 10px;"/>
        <path d="M90.92,246.47c29.64,8.84,68.85,24.52,105.16,24.52,19.68,0,22.36-7.98,26.41-20.03l33.08-106.4c3.11-9.31,1.86-19.63-3.39-27.81-2.6-3.99-6.04-7.26-10.04-9.51-4.01-2.26-5.36-2.49-9.87-2.49h-77.49" style="fill: none; stroke: #fff; stroke-miterlimit: 10; stroke-width: 10px;"/>
      </g>
    </g>
  </g>
</svg>