<?xml version="1.0" encoding="UTF-8"?>
<svg id="Layer_1" data-name="Layer 1" xmlns="http://www.w3.org/2000/svg" width="689.8" height="661.43" xmlns:xlink="http://www.w3.org/1999/xlink" viewBox="0 0 689.8 661.43">
  <defs>
    <clipPath id="clippath">
      <rect width="647.83" height="661.43" style="fill: none; stroke-width: 0px;"/>
    </clipPath>
    <clipPath id="clippath-1">
      <rect x="41.97" y="326.17" width="647.83" height="251.27" style="fill: none; stroke-width: 0px;"/>
    </clipPath>
  </defs>
  <g style="clip-path: url(#clippath);">
    <path d="M551.93,97.91c125.93,128.58,125.93,337.04,0,465.61s-330.11,128.57-456.04,0c-125.93-128.58-125.93-337.04,0-465.61,125.93-128.58,330.11-128.58,456.04,0h0Z" style="fill: #cee4a9; stroke-width: 0px;"/>
  </g>
  <g style="clip-path: url(#clippath-1);">
    <path d="M207.24,363.9c47.45-.16,86.2,39.34,86.2,87.95.16,23.23-8.72,45.36-25.02,62-16.3,16.81-37.95,25.85-61.03,25.85h-1.61c-22.43-.33-43.39-9.55-59.36-25.7-16.3-16.64-25.37-38.75-25.37-62.16,0-48.45,38.58-87.95,86.2-87.95h-.01ZM524.73,363.54c47.45,0,86.15,39.56,86.15,88.01,0,23.73-9.02,45.82-25.32,62.46-15.98,16.31-36.98,25.37-59.41,25.7h-1.61c-22.92,0-44.53-9.21-60.83-25.85-16.3-16.64-25.17-38.75-25.17-62.31,0-48.45,38.75-88.17,86.2-88.01h-.01ZM207.39,327.65c-32.44,0-62.92,13.01-85.84,36.41-15.98,16.31-26.96,36.43-32.13,58.34h-46v37.08h42.77c.81,9.56,1,10.37,1.16,10.87,3.87,26.04,15.47,50.1,34.2,69.21,22.92,23.4,53.56,36.41,85.84,36.41,64.07,0,117.34-51.27,121.05-116.69l.2-3.09,2.57-1.65c7.75-4.94,19.85-11.23,34.7-11.23s26.95,6.28,34.7,11.23l2.57,1.65.15,3.09c3.87,65.42,56.97,116.52,121.05,116.69,32.44.16,62.98-12.84,85.89-36.41,18.56-18.95,30.32-43.17,34.2-69.21.16-.49.3-1.31,1.11-10.87h42.77v-37.08h-45.65c-5.16-21.92-15.99-42.03-32.13-58.34-22.92-23.4-53.4-36.41-85.84-36.41h-2.12c-52.94.99-99.74,37.53-114.59,89.6l-1.92,6.59-6.15-2.63c-8.88-3.63-20.5-7.42-33.89-7.42s-25.02,3.63-33.89,7.42l-6.15,2.63-1.92-6.59c-14.69-52.07-61.65-88.78-114.59-89.6h-2.12Z" style="fill: #da594e; stroke-width: 0px;"/>
  </g>
</svg>