<?xml version="1.0" encoding="UTF-8"?>
<svg id="Layer_1" data-name="Layer 1" xmlns="http://www.w3.org/2000/svg" width="236.76" height="282.46" viewBox="0 0 236.76 282.46">
  <g id="Layer_13" data-name="Layer 13">
    <path d="M33.79,20.19c-6.47,1.7-11.18,6.87-11.18,12.99v217.38c0,7.5,7.08,13.59,15.81,13.59h173.89c3.38,0,6.51-.91,9.07-2.46,4.07-2.46,6.73-6.52,6.73-11.12v-5.85M22.61,36.82c-5.89,2-10.04,6.84-10.04,12.5v215.66c0,7.44,7.19,13.48,16.06,13.48h176.69c8.87,0,16.06-6.03,16.06-13.48v-3.28M232.76,17.59v217.37c0,3.82-1.78,7.27-4.64,9.74-1.85,1.6-4.16,2.79-6.73,3.39-1.26.3-2.57.45-3.93.45H49.1c-8.45,0-15.31-6.08-15.31-13.59V17.59c0-7.5,6.85-13.59,15.31-13.59h168.35c8.46,0,15.31,6.09,15.31,13.59ZM41.06,48.15l-10.01,11.05-8.44,9.32-7.58,8.37-10.94,12.08M41.75,91.58L2.76,128.8M42.68,132.17L3.02,170.03M44.85,172.98L4.35,206.32M45.99,215L3.21,247.09M66.55,43.02h136.06M66.55,68.43h136.06M66.55,94.46h136.06M66.55,119.87h136.06M66.55,145.29h136.06M66.55,169.15h136.06M66.55,194.57h136.06M66.55,219.98h136.06" style="fill: none; stroke: #fff; stroke-miterlimit: 10; stroke-width: 8px;"/>
  </g>
</svg>