<?xml version="1.0" encoding="UTF-8"?>
<svg id="Layer_1" data-name="Layer 1" xmlns="http://www.w3.org/2000/svg" width="1576" height="1146" viewBox="0 0 1576 1146">
  <g id="Layer_2" data-name="Layer 2">
    <path d="M18,434.25h1540M788,226.12V18M306.75,226.12V18M1269.25,226.12V18M114.25,1128h1347.5c53.16,0,96.25-31.06,96.25-69.38V226.12c0-38.31-43.09-69.38-96.25-69.38H114.25c-53.16,0-96.25,31.06-96.25,69.38v832.5c0,38.32,43.09,69.38,96.25,69.38ZM403,643.07h.96v-.69h-.96v.69ZM788,643.07h.96v-.69h-.96v.69ZM1173,643.07h.96v-.69h-.96v.69ZM403,920.57h.96v-.69h-.96v.69ZM788,920.57h.96v-.69h-.96v.69ZM1173,920.57h.96v-.69h-.96v.69Z" style="fill: none; stroke: #000; stroke-linecap: round; stroke-linejoin: round; stroke-width: 36px;"/>
  </g>
</svg>