<?xml version="1.0" encoding="UTF-8"?>
<svg id="Layer_1" data-name="Layer 1" xmlns="http://www.w3.org/2000/svg" width="383.6" height="302.53" viewBox="0 0 383.6 302.53">
  <g id="Layer_11" data-name="Layer 11">
    <g>
      <path d="M26.41,280.91V47.16c0-2.61,2.32-4.72,5.18-4.72h38c2.86,0,5.18,2.11,5.18,4.72v233.75c0,2.61-2.32,4.72-5.18,4.72H31.59c-2.86,0-5.18-2.11-5.18-4.72Z" style="fill: #fff; stroke: #fff; stroke-miterlimit: 10; stroke-width: 5px;"/>
      <path d="M129.01,280.47V93.1c0-2.61-2.32-4.72-5.18-4.72h-31.08c-2.86,0-5.18,2.11-5.18,4.72v187.37c0,2.61,2.32,4.72,5.18,4.72h31.08c2.86,0,5.18-2.11,5.18-4.72Z" style="fill: #fff; stroke: #fff; stroke-miterlimit: 10; stroke-width: 5px;"/>
      <path d="M228.16,273.61l-15.04-176.6c-.46-5.42-5.63-9.47-11.55-9.05l-19.89,1.42c-5.92.42-10.34,5.16-9.88,10.58l15.04,176.6c.46,5.42,5.63,9.47,11.55,9.05l19.89-1.42c5.92-.43,10.34-5.16,9.88-10.58Z" style="fill: #fff; stroke: #fff; stroke-miterlimit: 10; stroke-width: 5px;"/>
      <path d="M141.8,280.53v-148.14c0-2.57,2.29-4.66,5.11-4.66h11.27c2.82,0,5.11,2.09,5.11,4.66v148.14c0,2.57-2.29,4.66-5.11,4.66h-11.27c-2.83,0-5.11-2.09-5.11-4.66Z" style="fill: #fff; stroke: #fff; stroke-miterlimit: 10; stroke-width: 5px;"/>
      <path d="M302.93,279.37l-73.93-164.12c-2.27-5.03.43-10.57,6.03-12.36l45.64-14.58c5.6-1.79,11.98.84,14.25,5.88l73.93,164.12c2.27,5.03-.43,10.57-6.03,12.36l-45.64,14.58c-5.6,1.79-11.98-.84-14.25-5.88Z" style="fill: #fff; stroke: #fff; stroke-miterlimit: 10; stroke-width: 5px;"/>
      <g>
        <line x1="2.5" x2="2.5" y2="300.03" style="fill: none; stroke: #fff; stroke-miterlimit: 10; stroke-width: 5px;"/>
        <line x1="3.31" y1="295.99" x2="383.57" y2="300.03" style="fill: none; stroke: #fff; stroke-linejoin: round; stroke-width: 5px;"/>
      </g>
    </g>
  </g>
</svg>