<?xml version="1.0" encoding="UTF-8"?>
<svg id="Layer_1" data-name="Layer 1" xmlns="http://www.w3.org/2000/svg" width="270" height="280" viewBox="0 0 270 280">
  <g>
    <ellipse cx="135" cy="194.92" rx="6.69" ry="6.38" style="fill: none; stroke: #000; stroke-dasharray: 0 0 0 0 0 0 0 0 0 0 0 0; stroke-miterlimit: 10; stroke-width: 10px;"/>
    <g>
      <rect x="52.74" y="168.79" width="164.53" height="51.02" style="fill: none; stroke: #000; stroke-linecap: round; stroke-linejoin: round; stroke-width: 10px;"/>
      <line x1="5" y1="161.5" x2="265" y2="161.5" style="fill: none; stroke: #000; stroke-linecap: square; stroke-width: 10px;"/>
      <g>
        <line x1="100.86" y1="219.81" x2="73.08" y2="275" style="fill: none; stroke: #000; stroke-linecap: round; stroke-linejoin: round; stroke-width: 10px;"/>
        <line x1="169.15" y1="219.81" x2="196.93" y2="275" style="fill: none; stroke: #000; stroke-linecap: round; stroke-linejoin: round; stroke-width: 10px;"/>
      </g>
    </g>
  </g>
  <g>
    <g>
      <line x1="185.91" y1="43.71" x2="185.91" y2="139.39" style="fill: none; stroke: #000; stroke-linecap: round; stroke-linejoin: round; stroke-width: 10px;"/>
      <g>
        <line x1="199.69" y1="59.56" x2="199.69" y2="92.92" style="fill: none; stroke: #000; stroke-dasharray: 0 0 0 0 0 0 0 0 0 0 0 0; stroke-miterlimit: 10; stroke-width: 10px;"/>
        <ellipse cx="199.69" cy="93.61" rx="4.02" ry="3.14" style="fill: #000; stroke: #000; stroke-dasharray: 0 0 0 0 0 0 0 0 0 0 0 0; stroke-miterlimit: 10; stroke-width: 10px;"/>
      </g>
      <line x1="138.91" y1="140.88" x2="232.91" y2="140.88" style="fill: none; stroke: #000; stroke-miterlimit: 10; stroke-width: 10px;"/>
    </g>
    <g>
      <path d="M209.33,13.16c-12,4.9-34.84,4.9-46.84,0l5.46-8.16h35.92l5.46,8.16Z" style="fill: #000; stroke: #000; stroke-miterlimit: 10; stroke-width: 10px;"/>
      <polygon points="237.54 55.28 134.29 55.28 162.49 13.16 167.95 5 203.87 5 209.33 13.16 237.54 55.28" style="fill: #000; stroke: #000; stroke-miterlimit: 10; stroke-width: 10px;"/>
    </g>
  </g>
  <g>
    <path d="M61.37,138.82v-.08c0-.09,1.26-.16,2.81-.16h44.99s0,.34,0,.34l-45.69.02c-1.17,0-2.11-.05-2.11-.12Z" style="fill: none; stroke: #000; stroke-linecap: round; stroke-width: 10px;"/>
    <path d="M60.89,112.78v-.04s1.28-.08,2.87-.08h45.89v.17h-46.61c-1.19,0-2.15-.01-2.15-.05Z" style="fill: none; stroke: #000; stroke-linecap: round; stroke-width: 10px;"/>
    <path d="M60.77,86.56v-.02s1.29-.03,2.88-.03h46v.08h-46.72c-1.2,0-2.16-.02-2.16-.03Z" style="fill: none; stroke: #000; stroke-linecap: round; stroke-width: 10px;"/>
  </g>
</svg>